<svg viewBox="0 0 29.263 35.9995" xmlns="http://www.w3.org/2000/svg" xmlns:xlink="http://www.w3.org/1999/xlink" width="29.263000" height="35.999512" fill="none" customFrame="#000000">
	<path id="Vector" d="M29.0355 7.06108C28.9661 6.74833 28.848 6.44843 28.6856 6.17233C28.6856 6.17233 24.7829 0 14.6311 0C4.48236 0 0.576683 6.17233 0.576683 6.17233C0.432948 6.39885 0.275667 6.79845 0.225999 7.06108C0.225999 7.06108 -0.528798 11.0638 0.720418 16.8012C1.87105 22.0758 5.05128 29.6365 13.6859 35.6997C13.9628 35.8948 14.2932 35.9996 14.6319 35.9996C14.9706 35.9996 15.301 35.8948 15.5778 35.6997C24.2094 29.6358 27.3912 22.0758 28.5411 16.8012C29.794 11.0638 29.0355 7.06108 29.0355 7.06108ZM25.2141 16.0758C25.1817 16.227 25.1418 16.385 25.1042 16.5401L14.6311 16.5401L14.6311 32.1741C7.89438 27.0613 5.21082 20.9793 4.15727 16.5401L14.6311 16.5401L14.6311 3.40524C21.8593 3.40524 25.0779 7.04453 25.716 7.87382C25.8214 8.6384 26.1495 11.79 25.2141 16.0758Z" fill="rgb(98.4583,118.49,170)" fill-rule="nonzero" />
</svg>
