<svg width="137" height="48" viewBox="0 0 137 48" fill="none" xmlns="http://www.w3.org/2000/svg">
<mask id="mask0_1_248" style="mask-type:luminance" maskUnits="userSpaceOnUse" x="0" y="0" width="137" height="48">
<path d="M137 0H0V48H137V0Z" fill="white"/>
</mask>
<g mask="url(#mask0_1_248)">
<path d="M0.153499 27.9141C0.397899 27.8561 24.8152 22.0348 43.1998 13.8807C45.2449 12.9737 46.9008 12.436 48.2956 12.1826C46.7329 13.7572 37.54 17.6826 44.882 18.3782C51.6186 19.0171 40.5214 27.0107 35.4343 29.9169C22.0532 34.1596 13.3687 35.8258 13.2126 35.8554L13.3967 36.837C13.4423 36.8283 14.2201 36.6792 15.6276 36.3678C23.0039 34.7353 47.7648 28.622 76.1721 14.6516C80.1558 12.6924 83.4072 11.6059 86.1436 11.2027C85.3414 15.3185 76.0532 24.4199 90.8867 26.7181C104.416 28.8141 77.2846 34.136 67.1729 36.8457C65.7145 37.2366 64.6097 37.5732 64.0327 37.8376C59.5683 39.8853 111.467 38.0434 134.676 37.9501C135.433 37.9768 136.206 37.9921 137 37.9921V36.9932C116.27 36.9932 108.928 27.5135 103.028 19.8965C96.8975 11.9808 92.0551 5.72765 75.7316 13.7552C71.9386 15.6194 68.1041 17.3981 64.2312 19.0901C60.8086 17.8721 58.7358 16.1203 56.9198 14.5826C53.5385 11.7194 51.0952 9.65037 42.9304 13.2724C24.6028 21.4005 0.243734 27.2085 0 27.2661L0.153499 27.9141Z" fill="#FDFDFD"/>
</g>
</svg>
