<svg viewBox="0 0 17.5781 36" xmlns="http://www.w3.org/2000/svg" xmlns:xlink="http://www.w3.org/1999/xlink" width="17.578125" height="36.000000" fill="none" customFrame="#000000">
	<path id="Vector" d="M17.0897 9.44613L9.84375 4.83511L9.84375 1.05469C9.84375 0.472219 9.37153 0 8.78906 0C8.20659 0 7.73438 0.472219 7.73438 1.05469L7.73438 4.83511L0.488461 9.44613C0.338774 9.54139 0.215535 9.67288 0.130154 9.82841C0.0447722 9.98395 6.57043e-06 10.1585 0 10.3359L0 34.9453C0 35.5278 0.472219 36 1.05469 36L16.5234 36C17.1059 36 17.5781 35.5278 17.5781 34.9453L17.5781 10.3359C17.5781 9.97538 17.3939 9.63977 17.0897 9.44613ZM8.78906 17.2969C6.85055 17.2969 5.27344 15.7198 5.27344 13.7812C5.27344 12.21 6.30956 10.8765 7.73438 10.4275L7.73438 11.3203C7.73438 11.9028 8.20659 12.375 8.78906 12.375C9.37153 12.375 9.84375 11.9028 9.84375 11.3203L9.84375 10.4275C11.2686 10.8765 12.3047 12.21 12.3047 13.7812C12.3047 15.7198 10.7276 17.2969 8.78906 17.2969Z" fill="rgb(242,190,34)" fill-rule="nonzero" />
</svg>
