<svg viewBox="0 0 36 36" xmlns="http://www.w3.org/2000/svg" xmlns:xlink="http://www.w3.org/1999/xlink" width="36.000000" height="36.000000" fill="none">
	<rect id="Frame" width="36.000000" height="36.000000" x="0.000000" y="0.000000" fill="rgb(255,255,255)" fill-opacity="0" />
	<g id="Group">
		<path id="Vector" d="M12.0345 24.9277L15.678 24.9277L15.678 25.2301L12.0345 25.2301L12.0345 24.9277ZM28.0395 24.9277L36.0001 24.9277L36.0001 25.2301L28.0395 25.2301L28.0395 24.9277ZM27.8446 13.8785C28.1761 14.3344 28.4439 14.7347 28.6571 15.0913C28.726 13.9453 28.9244 13.2458 29.1207 12.8439L29.1207 16.0016C29.223 16.2606 29.2964 16.5329 29.3004 16.8194C29.3007 17.0229 29.2609 17.2096 29.1814 17.3775C29.164 17.4151 29.1427 17.4512 29.1207 17.4869L29.1207 23.3886C29.1207 23.6192 29.2123 23.8403 29.3753 24.0033C29.5384 24.1664 29.7595 24.258 29.9901 24.258C30.2206 24.258 30.4418 24.1664 30.6048 24.0033C30.7678 23.8403 30.8594 23.6192 30.8594 23.3886L30.8594 17.0419L31.1852 17.0419L31.1852 23.3886C31.1852 23.6191 31.2768 23.8402 31.4398 24.0033C31.6028 24.1663 31.8239 24.2579 32.0545 24.2579C32.285 24.2579 32.5061 24.1663 32.6691 24.0033C32.8321 23.8402 32.9237 23.6191 32.9237 23.3886L32.9237 16.2884C30.9405 14.1586 29.5848 11.8081 29.2571 11.2166C29.1947 11.2374 29.1291 11.2637 29.0609 11.2982C28.6828 11.4856 28.2751 11.8957 27.9898 12.6227C27.8698 12.9258 27.7665 13.2863 27.6864 13.7173C27.7465 13.7633 27.7997 13.8176 27.8446 13.8785ZM27.5091 16.3365L27.5105 16.3967L27.5426 16.4034C27.5316 16.381 27.5204 16.3587 27.5091 16.3365Z" fill="rgb(68.7969,117.938,106.494)" fill-rule="nonzero" />
		<path id="Vector" d="M30.4385 12.6932C31.046 13.6195 31.8962 14.7997 32.9236 15.9308L32.9236 12.8455C32.9653 12.9309 33.0073 13.029 33.0488 13.1434C33.2469 13.6927 33.4136 14.594 33.413 16.0005C33.413 16.3882 33.4006 16.8141 33.3732 17.2817C33.3687 17.3583 33.3799 17.435 33.4061 17.5071C33.4324 17.5791 33.4731 17.6451 33.5257 17.7008C33.5784 17.7566 33.6419 17.801 33.7123 17.8313C33.7827 17.8617 33.8587 17.8772 33.9353 17.8771C34.0787 17.877 34.2166 17.822 34.3209 17.7236C34.4252 17.6251 34.4879 17.4906 34.4963 17.3474C34.5231 16.8989 34.537 16.4498 34.5379 16.0005C34.5351 13.8786 34.1963 12.7042 33.7339 11.998C33.5031 11.6476 33.2328 11.4227 32.9832 11.2979C32.7339 11.1725 32.5148 11.1472 32.3903 11.1477L32.388 11.1478C32.3853 11.1477 32.383 11.147 32.3802 11.147L29.664 11.147C29.6608 11.147 29.6576 11.1479 29.6545 11.1479L29.6539 11.1479C29.603 11.1481 29.5522 11.1518 29.5018 11.1589C29.6579 11.4374 29.9781 11.9914 30.4385 12.6932Z" fill="rgb(68.7969,117.938,106.494)" fill-rule="nonzero" />
		<path id="Vector" d="M31.022 10.7463C31.8957 10.7463 32.6039 10.038 32.6039 9.16439C32.6039 8.29075 31.8957 7.58252 31.022 7.58252C30.1484 7.58252 29.4402 8.29075 29.4402 9.16439C29.4402 10.038 30.1484 10.7463 31.022 10.7463Z" fill="rgb(68.7969,117.938,106.494)" fill-rule="evenodd" />
		<path id="Vector" d="M4.76545 18.8764L4.76545 33.022C4.76545 33.8482 5.43523 34.5175 6.26094 34.5175C7.0869 34.5175 7.75669 33.8482 7.75669 33.022L7.75669 22.1022L8.31736 22.1022L8.31736 33.022C8.31736 33.8482 8.98715 34.5175 9.81286 34.5175C10.6388 34.5175 11.3086 33.8482 11.3086 33.022L11.3086 14.882C11.3893 15.049 11.4612 15.2201 11.5239 15.3947C11.8648 16.3398 12.1516 17.8903 12.1506 20.3106C12.1506 20.9776 12.1291 21.7104 12.0824 22.5152C12.0512 23.0487 12.4585 23.5063 12.9922 23.5377C13.2484 23.5526 13.5001 23.4652 13.6918 23.2946C13.8835 23.1239 13.9996 22.8842 14.0146 22.6279C14.0635 21.7892 14.0862 21.0192 14.0862 20.3107C14.0813 16.6595 13.4982 14.639 12.7031 13.4239C12.3056 12.8208 11.8407 12.4339 11.4113 12.2197C10.9951 12.0099 10.6293 11.9636 10.4116 11.9614C10.3992 11.961 10.3866 11.9595 10.3738 11.9595L9.80597 11.9595L9.50863 14.2843L8.32922 12.863L9.14453 11.9595L6.92928 11.9595L7.74459 12.863L6.56517 14.2843L6.26784 11.9595L5.70027 11.9595C5.6641 11.9595 5.62841 11.962 5.59333 11.9662C5.16487 11.972 4.72468 11.9968 4.29828 12.0082C4.17755 12.0114 4.05731 12.0144 3.93973 12.0143C3.24902 12.0216 2.65036 11.9236 2.37238 11.7513C2.22855 11.6659 2.15017 11.5878 2.07577 11.4533C2.00392 11.3178 1.93594 11.0979 1.93545 10.7244C1.93473 10.3213 2.02122 9.74849 2.24912 9.00189C2.32378 8.75635 2.29787 8.49121 2.17707 8.26477C2.05628 8.03833 1.85049 7.86914 1.60497 7.79441C1.59844 7.79235 1.59203 7.79138 1.5855 7.78957L1.5855 5.2678C1.84981 4.84369 2.52419 4.08633 3.70228 4.78865C6.8942 6.69132 7.08932 2.24813 7.08932 2.24813C7.08932 2.24813 5.41588 3.1757 4.20622 2.08701C3.18237 1.16561 1.94235 1.68818 1.58538 1.8706L1.58538 1.48218L1.1418 1.48218L1.1418 7.76985C0.968562 7.80282 0.807638 7.88252 0.676429 8.00034C0.545221 8.11816 0.448723 8.26961 0.397374 8.43831C0.132096 9.31277 0.000969233 10.058 1.5072e-06 10.7242C-0.000482356 11.3343 0.115524 11.8884 0.366286 12.3607C0.741521 13.0793 1.40792 13.5098 2.0419 13.7067C2.68363 13.9116 3.3297 13.9475 3.93973 13.9495C3.97312 13.9495 4.00614 13.9488 4.03941 13.9485C4.28969 13.9464 4.53355 13.9385 4.76532 13.9293L4.76545 18.8764Z" fill="rgb(68.7969,117.938,106.494)" fill-rule="nonzero" />
		<path id="Vector" d="M8.4808 11.2337C9.77295 11.0217 10.7586 9.90055 10.7586 8.54863C10.7586 7.04527 9.54022 5.8269 8.03685 5.8269C6.53373 5.8269 5.31512 7.04527 5.31512 8.54863C5.31512 9.90055 6.301 11.0217 7.59291 11.2337C7.73746 11.2574 7.88565 11.2704 8.03685 11.2704C8.18806 11.2704 8.33636 11.2575 8.4808 11.2337ZM22.223 17.1174C22.1011 15.8997 21.8282 15.1248 21.4882 14.6051C21.2574 14.2548 20.9871 14.0298 20.7376 13.9054C20.4881 13.7797 20.2691 13.7546 20.1444 13.7551L20.1442 13.7551C20.1409 13.7551 20.138 13.7541 20.1348 13.7541L19.6504 13.7541C19.8713 14.6864 19.9292 15.5453 19.9292 16.1876C19.9292 16.5745 19.9084 16.8826 19.8898 17.082L19.8898 18.3736L17.6634 18.3736L17.6634 17.0837C17.6363 16.7858 17.6231 16.4869 17.6237 16.1877C17.6237 15.5453 17.6817 14.6866 17.9027 13.7543L17.4185 13.7543C17.4152 13.7543 17.4121 13.7552 17.4089 13.7552L17.4083 13.7552C17.2838 13.7548 17.0645 13.7796 16.8153 13.9055C16.4371 14.0929 16.0295 14.5032 15.7442 15.2299C15.4554 15.9597 15.2615 17.0147 15.2606 18.6078C15.2608 19.0195 15.2737 19.4672 15.3027 19.955C15.3111 20.0981 15.3738 20.2326 15.4781 20.331C15.5823 20.4294 15.7202 20.4843 15.8636 20.4844C15.8747 20.4844 15.8858 20.484 15.8971 20.4835C16.046 20.4747 16.1853 20.4072 16.2844 20.2957C16.3835 20.1842 16.4343 20.0379 16.4256 19.889C16.3997 19.4624 16.3863 19.0352 16.3857 18.6078C16.3831 16.9048 16.6313 15.9498 16.8755 15.4508L16.8755 25.9959C16.8755 26.2264 16.967 26.4475 17.1301 26.6105C17.2931 26.7736 17.5142 26.8651 17.7447 26.8651C17.9753 26.8651 18.1964 26.7736 18.3594 26.6105C18.5224 26.4475 18.614 26.2264 18.614 25.9959L18.614 19.6492L18.9397 19.6492L18.9397 25.9959C18.9397 26.2264 19.0313 26.4476 19.1944 26.6106C19.3574 26.7737 19.5785 26.8653 19.8091 26.8653C20.0397 26.8653 20.2608 26.7737 20.4239 26.6106C20.5869 26.4476 20.6785 26.2264 20.6785 25.9959L20.6785 15.4532C20.7201 15.5385 20.7621 15.6365 20.8035 15.7507C21.0017 16.3002 21.1683 17.2013 21.1678 18.608C21.1678 18.9955 21.1552 19.4215 21.1281 19.8893C21.1163 20.0942 21.2167 20.2781 21.3748 20.3857C21.431 19.3378 21.5879 18.4955 21.8513 17.8296C21.963 17.5435 22.0904 17.3097 22.223 17.1174Z" fill="rgb(68.7969,117.938,106.494)" fill-rule="nonzero" />
		<path id="Vector" d="M17.8345 16.1876C17.8345 16.5101 17.8493 16.7759 17.8651 16.9675L19.688 16.9675C19.7035 16.7759 19.7184 16.5101 19.7184 16.1876C19.7184 15.5465 19.6583 14.6845 19.4326 13.7542L18.1203 13.7542C17.8946 14.6846 17.8345 15.5466 17.8345 16.1876Z" fill="rgb(68.7969,117.938,106.494)" fill-rule="nonzero" />
		<path id="Vector" d="M18.7765 13.3536C19.6502 13.3536 20.3584 12.6453 20.3584 11.7717C20.3584 10.898 19.6502 10.1898 18.7765 10.1898C17.9029 10.1898 17.1947 10.898 17.1947 11.7717C17.1947 12.6453 17.9029 13.3536 18.7765 13.3536Z" fill="rgb(68.7969,117.938,106.494)" fill-rule="evenodd" />
		<path id="Vector" d="M18.775 18.1039C18.9933 18.1039 19.1704 17.9268 19.1704 17.7084C19.1704 17.49 18.9933 17.313 18.775 17.313C18.5566 17.313 18.3795 17.49 18.3795 17.7084C18.3795 17.9268 18.5566 18.1039 18.775 18.1039Z" fill="rgb(68.7969,117.938,106.494)" fill-rule="evenodd" />
		<path id="Vector" d="M24.2881 13.6251L26.4501 13.6251C26.1707 13.1773 25.6751 12.8783 25.1082 12.8783C24.2346 12.8783 23.5264 13.5864 23.5264 14.46C23.5264 15.3338 24.2346 16.042 25.1082 16.042C25.6971 16.042 26.2099 15.7195 26.4822 15.2421L24.288 15.2421L24.288 13.6251L24.2881 13.6251Z" fill="rgb(68.7969,117.938,106.494)" fill-rule="nonzero" />
		<path id="Vector" d="M25.6357 14.8671C25.8751 14.8671 26.0692 14.673 26.0692 14.4335C26.0692 14.1941 25.8751 14 25.6357 14C25.3962 14 25.2021 14.1941 25.2021 14.4335C25.2021 14.673 25.3962 14.8671 25.6357 14.8671Z" fill="rgb(68.7969,117.938,106.494)" fill-rule="evenodd" />
		<path id="Vector" d="M29.0585 16.8226C29.0535 16.4619 28.9287 16.1174 28.7053 15.6729C28.4787 15.2309 28.1392 14.695 27.649 14.0208C27.6056 13.961 27.5508 13.9104 27.4878 13.8718C27.4248 13.8332 27.3548 13.8074 27.2818 13.7959C27.2088 13.7844 27.1343 13.7874 27.0625 13.8047C26.9907 13.822 26.9229 13.8533 26.8632 13.8968C26.8035 13.9402 26.7529 13.995 26.7144 14.058C26.6758 14.121 26.6501 14.191 26.6386 14.2639C26.6271 14.3369 26.63 14.4114 26.6473 14.4832C26.6646 14.5549 26.6959 14.6226 26.7393 14.6823C27.2077 15.3259 27.519 15.8228 27.704 16.1852C27.8226 16.412 27.8849 16.588 27.9137 16.6986C27.7538 16.6944 27.497 16.6453 27.2486 16.5863C27.1147 16.5554 26.9812 16.5228 26.8515 16.4961C26.7424 16.4743 26.6398 16.4552 26.5219 16.4482C26.5035 16.4463 26.4854 16.4425 26.4666 16.4425L23.7503 16.4425C23.7471 16.4425 23.7441 16.4435 23.7408 16.4435L23.7402 16.4435C23.6154 16.443 23.3965 16.468 23.1471 16.5937C22.769 16.7813 22.3614 17.1914 22.076 17.9182C21.7874 18.648 21.5935 19.7031 21.5925 21.296C21.5925 21.708 21.6058 22.1555 21.6345 22.6432C21.6432 22.7921 21.7107 22.9314 21.8222 23.0305C21.9336 23.1297 22.0799 23.1804 22.2288 23.1717C22.3777 23.163 22.517 23.0955 22.6161 22.9841C22.7153 22.8727 22.7661 22.7264 22.7574 22.5775C22.7316 22.1508 22.7183 21.7235 22.7175 21.296C22.7151 19.5933 22.9634 18.6385 23.2071 18.1393L23.2071 28.6841C23.2071 29.1645 23.5964 29.5534 24.0764 29.5534C24.5564 29.5534 24.9457 29.1645 24.9457 28.6841L24.9457 22.3377L25.2714 22.3377L25.2714 28.6841C25.2714 28.9147 25.363 29.1358 25.526 29.2988C25.689 29.4618 25.9101 29.5534 26.1407 29.5534C26.2549 29.5534 26.3679 29.531 26.4734 29.4873C26.5789 29.4436 26.6748 29.3796 26.7555 29.2989C26.8362 29.2181 26.9003 29.1223 26.944 29.0168C26.9877 28.9114 27.0102 28.7983 27.0102 28.6841L27.0102 17.6854C27.0766 17.7008 27.1447 17.7162 27.2155 17.7313C27.444 17.7788 27.6875 17.8227 27.9448 17.8239C28.1606 17.8209 28.406 17.7989 28.6582 17.6311C28.7894 17.541 28.8945 17.4177 28.9628 17.2739C29.032 17.1274 29.0587 16.9713 29.0585 16.8226Z" fill="rgb(68.7969,117.938,106.494)" fill-rule="nonzero" />
	</g>
</svg>
